# Blender 3.3.1
# www.blender.org
o prop01
v 0.655707 1.911255 -2.619759
v 0.655184 1.911778 -2.621804
v 0.014861 1.292823 -2.603384
v 0.030147 1.277537 -2.588747
v 0.678355 1.888607 -2.631428
v 0.677832 1.889130 -2.633473
v 0.044114 1.263570 -2.664485
v 0.059400 1.248284 -2.649848
v 0.664374 1.906841 -2.626899
v 0.672241 1.898974 -2.630943
v 0.665552 1.905663 -2.622289
v 0.673418 1.897797 -2.626333
v 0.016393 1.291292 -2.628251
v 0.028339 1.279346 -2.653425
v 0.045923 1.261762 -2.599807
v 0.057869 1.249815 -2.624980
v 0.654973 1.911989 -2.620538
v 0.019103 1.288581 -2.588962
v 0.678567 1.888396 -2.632694
v 0.055158 1.252526 -2.664270
v 0.509929 1.793728 -2.616116
v 0.367234 1.668864 -2.613147
v 0.236068 1.532472 -2.609611
v 0.105994 1.394987 -2.608720
v 0.510714 1.792943 -2.612661
v 0.368196 1.667902 -2.608985
v 0.239647 1.528892 -2.599887
v 0.118366 1.382614 -2.589345
v 0.559519 1.744137 -2.640570
v 0.434479 1.601619 -2.644246
v 0.295469 1.473070 -2.653344
v 0.149192 1.351789 -2.663887
v 0.560305 1.743352 -2.637116
v 0.435442 1.600656 -2.640085
v 0.299049 1.469490 -2.643621
v 0.161564 1.339417 -2.644511
v 0.524145 1.779512 -2.632734
v 0.386770 1.649328 -2.633701
v 0.250326 1.518213 -2.632471
v 0.112758 1.388223 -2.634041
v 0.541363 1.762294 -2.641235
v 0.410119 1.625979 -2.644515
v 0.274050 1.494489 -2.649938
v 0.130674 1.370307 -2.656453
v 0.546088 1.757568 -2.620498
v 0.415905 1.620193 -2.619531
v 0.284791 1.483749 -2.620761
v 0.154800 1.346181 -2.619191
v 0.528870 1.774786 -2.611997
v 0.392556 1.643542 -2.608717
v 0.261067 1.507473 -2.603294
v 0.136885 1.364096 -2.596779
v 0.509282 1.794375 -2.613881
v 0.366310 1.669787 -2.610421
v 0.231972 1.536568 -2.600416
v 0.107158 1.393823 -2.592619
v 0.560952 1.742705 -2.639351
v 0.436365 1.599733 -2.642811
v 0.303145 1.465394 -2.652815
v 0.160401 1.340580 -2.660612
v 0.629971 1.891555 -2.621068
v 0.630806 1.890720 -2.617810
v 0.657297 1.864228 -2.635422
v 0.658132 1.863394 -2.632163
v 0.637977 1.883548 -2.629286
v 0.647482 1.874043 -2.634274
v 0.650126 1.871400 -2.623946
v 0.640621 1.880905 -2.618958
v 0.629817 1.891708 -2.619139
v 0.658286 1.863240 -2.634093
v 0.677832 1.889130 -2.633473
v 0.678567 1.888396 -2.632694
v 0.678355 1.888607 -2.631428
v 0.655184 1.911778 -2.621804
v 0.654973 1.911989 -2.620538
v 0.655707 1.911255 -2.619759
v 0.673418 1.897797 -2.626333
v 0.665552 1.905663 -2.622289
v 0.672241 1.898974 -2.630943
v 0.664374 1.906841 -2.626899
v 0.672830 1.898386 -2.628638
v 0.664963 1.906252 -2.624594
v 0.054595 1.243479 -2.649848
v 0.050353 1.247721 -2.664270
v 0.039309 1.258765 -2.664485
v 0.025342 1.272732 -2.588747
v 0.014298 1.283776 -2.588962
v 0.010056 1.288018 -2.603384
v 0.053064 1.245010 -2.624980
v 0.041118 1.256956 -2.599807
v 0.023533 1.274540 -2.653425
v 0.011587 1.286487 -2.628251
v 0.038335 1.259739 -2.639167
v 0.026316 1.271757 -2.614064
vn -0.3185 0.3590 -0.8773
vn -0.3502 0.3664 -0.8620
vn -0.5453 0.5620 -0.6219
vn -0.5348 0.6136 -0.5809
vn -0.4388 0.4589 -0.7726
vn -0.6282 0.5977 -0.4981
vn -0.5725 0.5756 -0.5839
vn -0.7227 0.6677 -0.1783
vn -0.6570 0.6424 -0.3944
vn -0.7230 0.6857 0.0838
vn -0.0978 0.1352 -0.9860
vn -0.1163 0.1480 -0.9821
vn -0.1832 0.2421 -0.9528
vn -0.3147 0.3593 -0.8786
vn -0.4343 0.4403 -0.7858
vn 0.2406 -0.1677 -0.9560
vn 0.1413 -0.0845 -0.9864
vn 0.0436 0.0214 -0.9988
vn -0.0303 0.0737 -0.9968
vn -0.1232 0.1320 -0.9836
vn 0.3590 -0.3185 0.8773
vn 0.3664 -0.3502 0.8620
vn 0.5620 -0.5453 0.6219
vn 0.6136 -0.5348 0.5809
vn 0.4589 -0.4388 0.7726
vn 0.5977 -0.6282 0.4981
vn 0.5756 -0.5725 0.5839
vn 0.6677 -0.7227 0.1783
vn 0.6424 -0.6570 0.3944
vn 0.6857 -0.7230 -0.0838
vn 0.1352 -0.0978 0.9860
vn 0.1480 -0.1163 0.9821
vn 0.2421 -0.1832 0.9528
vn 0.3593 -0.3147 0.8786
vn 0.4403 -0.4343 0.7858
vn -0.1677 0.2406 0.9560
vn -0.0845 0.1413 0.9864
vn 0.0214 0.0436 0.9988
vn 0.0737 -0.0303 0.9968
vn 0.1320 -0.1232 0.9836
vn -0.6035 0.7308 0.3190
vn -0.6278 0.6954 0.3496
vn -0.6018 0.6063 0.5198
vn -0.5316 0.4991 0.6843
vn -0.4337 0.4106 0.8021
vn 0.4106 -0.4337 -0.8021
vn 0.4991 -0.5316 -0.6843
vn 0.6063 -0.6018 -0.5198
vn 0.6954 -0.6278 -0.3496
vn 0.7308 -0.6035 -0.3190
vn 0.4672 -0.3689 -0.8035
vn -0.2864 0.3679 -0.8846
vn -0.5321 0.6457 -0.5478
vn 0.3158 -0.1149 -0.9418
vn 0.5074 -0.4192 -0.7528
vn -0.1078 0.1899 -0.9759
vn 0.5959 -0.5105 -0.6200
vn 0.2664 -0.1516 -0.9519
vn 0.6395 -0.5774 0.5075
vn 0.3679 -0.2864 0.8846
vn 0.6457 -0.5321 0.5478
vn 0.7041 -0.6372 0.3134
vn 0.6083 -0.5402 0.5815
vn 0.1899 -0.1078 0.9759
vn 0.4899 -0.3819 0.7836
vn -0.1516 0.2664 0.9519
vn 0.5083 -0.0846 0.8570
vn -0.5815 0.7422 0.3333
vn 0.7421 -0.5815 -0.3333
vn 0.7369 -0.6559 -0.1637
vn 0.9666 -0.2460 -0.0714
vn 0.9569 -0.2873 -0.0427
vn 0.9667 -0.2551 -0.0201
vn 0.9872 -0.1504 0.0533
vn 0.9962 -0.0830 0.0258
vn 0.9912 -0.0985 0.0884
vn 0.9964 -0.0835 -0.0122
vn 0.9985 0.0272 0.0480
vn 0.9962 -0.0761 -0.0431
vn 0.9993 0.0358 0.0138
vn 0.7871 0.6153 -0.0438
vn 0.6153 0.7871 0.0438
vn 0.0619 -0.9914 -0.1154
vn -0.1090 -0.7422 -0.6613
vn -0.5831 -0.3473 -0.7344
vn -0.7422 -0.1090 0.6613
vn -0.3473 -0.5831 0.7344
vn -0.9914 0.0619 0.1154
vn 0.0407 -0.9671 0.2513
vn -0.1093 -0.8150 0.5690
vn -0.8150 -0.1093 -0.5690
vn -0.9671 0.0407 -0.2513
vn -0.7071 -0.7071 -0.0000
vt 0.940379 0.994717
vt 0.990314 0.994301
vt 0.991608 0.778690
vt 0.936713 0.779678
vt 0.955189 0.994200
vt 0.975407 0.994818
vt 0.972315 0.779463
vt 0.957329 0.779036
vt 0.985638 0.995120
vt 0.980431 0.995372
vt 0.945370 0.995266
vt 0.950543 0.995014
vt 0.985449 0.779958
vt 0.978490 0.780292
vt 0.943145 0.779428
vt 0.950885 0.779214
vt 0.992408 0.994496
vt 0.938321 0.995068
vt 0.932368 0.779903
vt 0.996036 0.778090
vt 0.973335 0.995170
vt 0.957270 0.994393
vt 0.961693 0.778821
vt 0.967935 0.779363
vt 0.990306 0.941275
vt 0.991576 0.898642
vt 0.991549 0.855968
vt 0.991667 0.813544
vt 0.937142 0.941275
vt 0.933344 0.898646
vt 0.934325 0.855968
vt 0.935788 0.813544
vt 0.972159 0.941275
vt 0.968340 0.898642
vt 0.969330 0.855968
vt 0.970816 0.813544
vt 0.955173 0.941275
vt 0.956432 0.898646
vt 0.956404 0.855968
vt 0.956549 0.813544
vt 0.984239 0.941275
vt 0.983888 0.898642
vt 0.984739 0.855968
vt 0.985241 0.813544
vt 0.978148 0.941275
vt 0.976070 0.898642
vt 0.976178 0.855968
vt 0.977229 0.813544
vt 0.949145 0.941275
vt 0.948793 0.898646
vt 0.949637 0.855968
vt 0.950152 0.813544
vt 0.943092 0.941275
vt 0.941024 0.898646
vt 0.941131 0.855968
vt 0.942183 0.813544
vt 0.932049 0.941275
vt 0.995447 0.941275
vt 0.927797 0.898646
vt 0.997072 0.898642
vt 0.928897 0.855968
vt 0.997072 0.855968
vt 0.930897 0.813544
vt 0.996603 0.813544
vt 0.960281 0.941275
vt 0.967034 0.941275
vt 0.961893 0.898646
vt 0.962758 0.898642
vt 0.961893 0.855968
vt 0.963867 0.855968
vt 0.961472 0.813544
vt 0.965912 0.813544
vt 0.990730 0.978849
vt 0.939022 0.978849
vt 0.974045 0.978849
vt 0.955599 0.978849
vt 0.985260 0.978849
vt 0.979558 0.978849
vt 0.950165 0.978849
vt 0.944499 0.978849
vt 0.936501 0.978849
vt 0.993244 0.978849
vt 0.958097 0.978849
vt 0.971508 0.978849
vt 0.975369 0.995143
vt 0.973376 0.995473
vt 0.957231 0.994649
vt 0.955208 0.994528
vt 0.990333 0.994631
vt 0.992369 0.994754
vt 0.938361 0.995369
vt 0.940341 0.995040
vt 0.950589 0.995713
vt 0.945305 0.995910
vt 0.980364 0.996020
vt 0.985683 0.995823
vt 0.980218 0.997243
vt 0.950815 0.996865
vt 0.985910 0.996983
vt 0.945159 0.997125
vt 0.957256 0.777220
vt 0.971074 0.769986
vt 0.961573 0.776943
vt 0.968008 0.777426
vt 0.969222 0.774274
vt 0.972467 0.777623
vt 0.936633 0.777859
vt 0.992067 0.769340
vt 0.932296 0.778023
vt 0.995749 0.776142
vt 0.994152 0.773337
vt 0.991270 0.776801
vt 0.950828 0.777472
vt 0.977156 0.765592
vt 0.943094 0.777681
vt 0.985963 0.765423
vt 0.978608 0.778734
vt 0.985233 0.778336
vt 0.977757 0.772677
vt 0.985755 0.772433
s 1
f 37/41/1 38/42/2 22/26/3 21/25/4
f 38/42/2 39/43/5 23/27/6 22/26/3
f 39/43/5 40/44/7 24/28/8 23/27/6
f 40/44/7 13/13/9 3/3/10 24/28/8
f 41/45/11 42/46/12 38/42/2 37/41/1
f 42/46/12 43/47/13 39/43/5 38/42/2
f 43/47/13 44/48/14 40/44/7 39/43/5
f 44/48/14 14/14/15 13/13/9 40/44/7
f 29/33/16 30/34/17 42/46/12 41/45/11
f 30/34/17 31/35/18 43/47/13 42/46/12
f 31/35/18 32/36/19 44/48/14 43/47/13
f 32/36/19 7/7/20 14/14/15 44/48/14
f 45/49/21 46/50/22 34/38/23 33/37/24
f 46/50/22 47/51/25 35/39/26 34/38/23
f 47/51/25 48/52/27 36/40/28 35/39/26
f 48/52/27 16/16/29 8/8/30 36/40/28
f 49/53/31 50/54/32 46/50/22 45/49/21
f 50/54/32 51/55/33 47/51/25 46/50/22
f 51/55/33 52/56/34 48/52/27 47/51/25
f 52/56/34 15/15/35 16/16/29 48/52/27
f 25/29/36 26/30/37 50/54/32 49/53/31
f 26/30/37 27/31/38 51/55/33 50/54/32
f 27/31/38 28/32/39 52/56/34 51/55/33
f 28/32/39 4/4/40 15/15/35 52/56/34
f 53/57/41 54/59/42 26/30/37 25/29/36
f 54/59/42 55/61/43 27/31/38 26/30/37
f 55/61/43 56/63/44 28/32/39 27/31/38
f 56/63/44 18/19/45 4/4/40 28/32/39
f 21/25/4 22/26/3 54/60/42 53/58/41
f 22/26/3 23/27/6 55/62/43 54/60/42
f 23/27/6 24/28/8 56/64/44 55/62/43
f 24/28/8 3/3/10 18/20/45 56/64/44
f 20/23/46 60/71/47 36/40/28 8/8/30
f 60/71/47 59/69/48 35/39/26 36/40/28
f 59/69/48 58/67/49 34/38/23 35/39/26
f 58/67/49 57/65/50 33/37/24 34/38/23
f 7/7/20 32/36/19 60/72/47 20/24/46
f 32/36/19 31/35/18 59/70/48 60/72/47
f 31/35/18 30/34/17 58/68/49 59/70/48
f 30/34/17 29/33/16 57/66/50 58/68/49
f 9/9/51 65/77/52 61/73/53 2/2/54
f 65/77/52 37/41/1 21/25/4 61/73/53
f 10/10/55 66/78/56 65/77/52 9/9/51
f 66/78/56 41/45/11 37/41/1 65/77/52
f 6/6/57 63/75/58 66/78/56 10/10/55
f 63/75/58 29/33/16 41/45/11 66/78/56
f 12/12/59 67/79/60 64/76/61 5/5/62
f 67/79/60 45/49/21 33/37/24 64/76/61
f 11/11/63 68/80/64 67/79/60 12/12/59
f 68/80/64 49/53/31 45/49/21 67/79/60
f 1/1/65 62/74/66 68/80/64 11/11/63
f 62/74/66 25/29/36 49/53/31 68/80/64
f 62/74/66 1/1/65 17/18/67 69/81/68
f 69/81/68 53/57/41 25/29/36 62/74/66
f 2/2/54 61/73/53 69/82/68 17/17/67
f 61/73/53 21/25/4 53/58/41 69/82/68
f 57/65/50 70/83/69 64/76/61 33/37/24
f 70/83/69 19/22/70 5/5/62 64/76/61
f 29/33/16 63/75/58 70/84/69 57/66/50
f 63/75/58 6/6/57 19/21/70 70/84/69
f 19/21/70 6/6/57 71/85/71 72/86/72
f 5/5/62 19/22/70 72/87/72 73/88/73
f 2/2/54 17/17/67 75/90/74 74/89/75
f 17/18/67 1/1/65 76/92/76 75/91/74
f 12/12/59 5/5/62 73/88/73 77/93/77
f 11/11/63 12/12/59 77/93/77 78/94/78
f 1/1/65 11/11/63 78/94/78 76/92/76
f 6/6/57 10/10/55 79/95/79 71/85/71
f 10/10/55 9/9/51 80/96/80 79/95/79
f 9/9/51 2/2/54 74/89/75 80/96/80
f 72/86/72 71/85/71 79/95/79 81/97/81
f 73/88/73 72/87/72 81/98/81 77/93/77
f 81/97/81 79/95/79 80/96/80 82/99/82
f 77/93/77 81/98/81 82/100/82 78/94/78
f 82/99/82 80/96/80 74/89/75 75/90/74
f 75/91/74 76/92/76 78/94/78 82/100/82
f 20/23/46 8/8/30 83/101/83 84/103/84
f 7/7/20 20/24/46 84/104/84 85/106/85
f 4/4/40 18/19/45 87/109/86 86/107/87
f 18/20/45 3/3/10 88/112/88 87/110/86
f 8/8/30 16/16/29 89/113/89 83/101/83
f 16/16/29 15/15/35 90/115/90 89/113/89
f 15/15/35 4/4/40 86/107/87 90/115/90
f 14/14/15 7/7/20 85/106/85 91/117/91
f 13/13/9 14/14/15 91/117/91 92/118/92
f 3/3/10 13/13/9 92/118/92 88/112/88
f 84/105/84 83/102/83 89/114/89 93/119/93
f 85/106/85 84/105/84 93/119/93 91/117/91
f 93/119/93 89/114/89 90/116/90 94/120/93
f 91/117/91 93/119/93 94/120/93 92/118/92
f 94/120/93 90/116/90 86/108/87 87/111/86
f 92/118/92 94/120/93 87/111/86 88/112/88
o prop02
v -0.655708 0.555590 -2.619758
v -0.655185 0.555067 -2.621804
v -0.014862 1.174022 -2.603384
v -0.030148 1.189308 -2.588747
v -0.678356 0.578238 -2.631427
v -0.677833 0.577715 -2.633473
v -0.044115 1.203275 -2.664485
v -0.059401 1.218561 -2.649848
v -0.664375 0.560004 -2.626899
v -0.672241 0.567871 -2.630943
v -0.665552 0.561182 -2.622288
v -0.673419 0.569048 -2.626332
v -0.016393 1.175553 -2.628251
v -0.028339 1.187499 -2.653425
v -0.045924 1.205083 -2.599807
v -0.057870 1.217030 -2.624980
v -0.654974 0.554856 -2.620538
v -0.019104 1.178264 -2.588962
v -0.678567 0.578449 -2.632694
v -0.055159 1.214319 -2.664270
v -0.509929 0.673117 -2.616116
v -0.367234 0.797981 -2.613147
v -0.236068 0.934373 -2.609611
v -0.105994 1.071858 -2.608720
v -0.510714 0.673902 -2.612661
v -0.368196 0.798943 -2.608985
v -0.239648 0.937953 -2.599887
v -0.118367 1.084231 -2.589345
v -0.559520 0.722708 -2.640570
v -0.434480 0.865226 -2.644246
v -0.295470 0.993775 -2.653344
v -0.149192 1.115056 -2.663887
v -0.560305 0.723493 -2.637116
v -0.435442 0.866189 -2.640084
v -0.299049 0.997355 -2.643620
v -0.161565 1.127428 -2.644511
v -0.524145 0.687333 -2.632734
v -0.386771 0.817518 -2.633701
v -0.250326 0.948632 -2.632471
v -0.112759 1.078622 -2.634041
v -0.541363 0.704551 -2.641235
v -0.410120 0.840866 -2.644515
v -0.274051 0.972356 -2.649937
v -0.130674 1.096538 -2.656453
v -0.546089 0.709277 -2.620498
v -0.415905 0.846652 -2.619531
v -0.284791 0.983096 -2.620761
v -0.154801 1.120664 -2.619191
v -0.528871 0.692059 -2.611997
v -0.392556 0.823303 -2.608717
v -0.261067 0.959372 -2.603294
v -0.136885 1.102749 -2.596779
v -0.509282 0.672470 -2.613880
v -0.366311 0.797058 -2.610421
v -0.231972 0.930277 -2.600416
v -0.107158 1.073022 -2.592619
v -0.560952 0.724140 -2.639351
v -0.436365 0.867112 -2.642811
v -0.303146 1.001451 -2.652815
v -0.160401 1.126265 -2.660612
v -0.629972 0.575290 -2.621068
v -0.630806 0.576125 -2.617810
v -0.657297 0.602616 -2.635422
v -0.658132 0.603451 -2.632163
v -0.637978 0.583297 -2.629286
v -0.647482 0.592802 -2.634274
v -0.650126 0.595445 -2.623946
v -0.640621 0.585940 -2.618958
v -0.629818 0.575137 -2.619139
v -0.658286 0.603605 -2.634092
v -0.677833 0.577715 -2.633473
v -0.678567 0.578449 -2.632694
v -0.678356 0.578238 -2.631427
v -0.655185 0.555067 -2.621804
v -0.654974 0.554856 -2.620538
v -0.655708 0.555590 -2.619758
v -0.673419 0.569048 -2.626332
v -0.665552 0.561182 -2.622288
v -0.672241 0.567871 -2.630943
v -0.664375 0.560004 -2.626899
v -0.672830 0.568459 -2.628638
v -0.664963 0.560593 -2.624594
v -0.054596 1.223366 -2.649848
v -0.050354 1.219124 -2.664270
v -0.039310 1.208080 -2.664485
v -0.025343 1.194113 -2.588747
v -0.014299 1.183069 -2.588962
v -0.010057 1.178827 -2.603384
v -0.053064 1.221835 -2.624980
v -0.041118 1.209889 -2.599807
v -0.023534 1.192305 -2.653425
v -0.011588 1.180358 -2.628251
v -0.038335 1.207106 -2.639167
v -0.026317 1.195088 -2.614064
vn 0.3185 -0.3590 -0.8773
vn 0.3502 -0.3664 -0.8620
vn 0.5453 -0.5620 -0.6219
vn 0.5348 -0.6136 -0.5809
vn 0.4388 -0.4589 -0.7726
vn 0.6282 -0.5977 -0.4981
vn 0.5725 -0.5756 -0.5839
vn 0.7227 -0.6677 -0.1783
vn 0.6570 -0.6424 -0.3944
vn 0.7230 -0.6857 0.0838
vn 0.0978 -0.1351 -0.9860
vn 0.1163 -0.1480 -0.9821
vn 0.1832 -0.2421 -0.9528
vn 0.3147 -0.3593 -0.8786
vn 0.4343 -0.4403 -0.7858
vn -0.2406 0.1677 -0.9560
vn -0.1413 0.0845 -0.9864
vn -0.0436 -0.0214 -0.9988
vn 0.0303 -0.0737 -0.9968
vn 0.1232 -0.1320 -0.9836
vn -0.3590 0.3185 0.8773
vn -0.3664 0.3502 0.8620
vn -0.5620 0.5453 0.6219
vn -0.6136 0.5348 0.5809
vn -0.4589 0.4388 0.7726
vn -0.5977 0.6282 0.4981
vn -0.5756 0.5725 0.5839
vn -0.6677 0.7227 0.1783
vn -0.6424 0.6570 0.3944
vn -0.6857 0.7230 -0.0838
vn -0.1351 0.0978 0.9860
vn -0.1480 0.1163 0.9821
vn -0.2421 0.1832 0.9528
vn -0.3593 0.3147 0.8786
vn -0.4403 0.4343 0.7858
vn 0.1677 -0.2406 0.9560
vn 0.0845 -0.1413 0.9864
vn -0.0214 -0.0436 0.9988
vn -0.0737 0.0303 0.9968
vn -0.1320 0.1232 0.9836
vn 0.6035 -0.7308 0.3190
vn 0.6278 -0.6954 0.3496
vn 0.6018 -0.6063 0.5198
vn 0.5316 -0.4992 0.6843
vn 0.4337 -0.4106 0.8021
vn -0.4106 0.4337 -0.8021
vn -0.4992 0.5316 -0.6843
vn -0.6063 0.6018 -0.5198
vn -0.6954 0.6278 -0.3496
vn -0.7308 0.6035 -0.3190
vn -0.4672 0.3689 -0.8035
vn 0.2864 -0.3679 -0.8846
vn 0.5321 -0.6457 -0.5478
vn -0.3158 0.1149 -0.9418
vn -0.5074 0.4192 -0.7528
vn 0.1078 -0.1899 -0.9759
vn -0.5959 0.5105 -0.6200
vn -0.2664 0.1516 -0.9519
vn -0.6395 0.5774 0.5075
vn -0.3679 0.2864 0.8846
vn -0.6457 0.5321 0.5478
vn -0.7041 0.6372 0.3134
vn -0.6083 0.5402 0.5815
vn -0.1899 0.1078 0.9759
vn -0.4899 0.3819 0.7836
vn 0.1516 -0.2664 0.9519
vn -0.5083 0.0846 0.8570
vn 0.5815 -0.7422 0.3333
vn -0.7421 0.5815 -0.3333
vn -0.7369 0.6559 -0.1637
vn -0.9666 0.2460 -0.0714
vn -0.9569 0.2873 -0.0427
vn -0.9667 0.2551 -0.0201
vn -0.9872 0.1504 0.0533
vn -0.9962 0.0830 0.0258
vn -0.9912 0.0985 0.0884
vn -0.9964 0.0835 -0.0122
vn -0.9985 -0.0272 0.0480
vn -0.9962 0.0761 -0.0431
vn -0.9993 -0.0358 0.0138
vn -0.7871 -0.6153 -0.0438
vn -0.6153 -0.7871 0.0438
vn -0.0619 0.9914 -0.1154
vn 0.1090 0.7422 -0.6613
vn 0.5831 0.3473 -0.7344
vn 0.7422 0.1090 0.6613
vn 0.3473 0.5831 0.7344
vn 0.9914 -0.0619 0.1154
vn -0.0407 0.9671 0.2513
vn 0.1093 0.8150 0.5690
vn 0.8150 0.1093 -0.5690
vn 0.9671 -0.0407 -0.2513
vn 0.7071 0.7071 -0.0000
vt 0.940379 0.994717
vt 0.990314 0.994301
vt 0.991608 0.778690
vt 0.936713 0.779678
vt 0.955189 0.994200
vt 0.975407 0.994818
vt 0.972315 0.779463
vt 0.957329 0.779036
vt 0.985638 0.995120
vt 0.980431 0.995372
vt 0.945370 0.995266
vt 0.950543 0.995014
vt 0.985449 0.779958
vt 0.978490 0.780292
vt 0.943145 0.779428
vt 0.950885 0.779214
vt 0.992408 0.994496
vt 0.938321 0.995068
vt 0.932368 0.779903
vt 0.996036 0.778090
vt 0.973335 0.995170
vt 0.957270 0.994393
vt 0.961693 0.778821
vt 0.967935 0.779363
vt 0.990306 0.941275
vt 0.991576 0.898642
vt 0.991549 0.855968
vt 0.991667 0.813544
vt 0.937142 0.941275
vt 0.933344 0.898646
vt 0.934325 0.855968
vt 0.935788 0.813544
vt 0.972159 0.941275
vt 0.968340 0.898642
vt 0.969330 0.855968
vt 0.970816 0.813544
vt 0.955173 0.941275
vt 0.956432 0.898646
vt 0.956404 0.855968
vt 0.956549 0.813544
vt 0.984239 0.941275
vt 0.983888 0.898642
vt 0.984739 0.855968
vt 0.985241 0.813544
vt 0.978148 0.941275
vt 0.976070 0.898642
vt 0.976178 0.855968
vt 0.977229 0.813544
vt 0.949145 0.941275
vt 0.948793 0.898646
vt 0.949637 0.855968
vt 0.950152 0.813544
vt 0.943092 0.941275
vt 0.941024 0.898646
vt 0.941131 0.855968
vt 0.942183 0.813544
vt 0.932049 0.941275
vt 0.995447 0.941275
vt 0.927797 0.898646
vt 0.997072 0.898642
vt 0.928897 0.855968
vt 0.997072 0.855968
vt 0.930897 0.813544
vt 0.996603 0.813544
vt 0.960281 0.941275
vt 0.967034 0.941275
vt 0.961893 0.898646
vt 0.962758 0.898642
vt 0.961893 0.855968
vt 0.963867 0.855968
vt 0.961472 0.813544
vt 0.965912 0.813544
vt 0.990730 0.978849
vt 0.939022 0.978849
vt 0.974045 0.978849
vt 0.955599 0.978849
vt 0.985260 0.978849
vt 0.979558 0.978849
vt 0.950165 0.978849
vt 0.944499 0.978849
vt 0.936501 0.978849
vt 0.993244 0.978849
vt 0.958097 0.978849
vt 0.971508 0.978849
vt 0.975369 0.995143
vt 0.973376 0.995473
vt 0.957231 0.994649
vt 0.955208 0.994528
vt 0.990333 0.994631
vt 0.992369 0.994754
vt 0.938361 0.995369
vt 0.940341 0.995040
vt 0.950589 0.995713
vt 0.945305 0.995910
vt 0.980364 0.996020
vt 0.985683 0.995823
vt 0.980218 0.997243
vt 0.950815 0.996865
vt 0.985910 0.996983
vt 0.945159 0.997125
vt 0.957256 0.777220
vt 0.971074 0.769986
vt 0.961573 0.776943
vt 0.968008 0.777426
vt 0.969222 0.774274
vt 0.972467 0.777623
vt 0.936633 0.777859
vt 0.992067 0.769340
vt 0.932296 0.778023
vt 0.995749 0.776142
vt 0.994152 0.773337
vt 0.991270 0.776801
vt 0.950828 0.777472
vt 0.977156 0.765592
vt 0.943094 0.777681
vt 0.985963 0.765423
vt 0.978608 0.778734
vt 0.985233 0.778336
vt 0.977757 0.772677
vt 0.985755 0.772433
s 1
f 131/161/94 132/162/95 116/146/96 115/145/97
f 132/162/95 133/163/98 117/147/99 116/146/96
f 133/163/98 134/164/100 118/148/101 117/147/99
f 134/164/100 107/133/102 97/123/103 118/148/101
f 135/165/104 136/166/105 132/162/95 131/161/94
f 136/166/105 137/167/106 133/163/98 132/162/95
f 137/167/106 138/168/107 134/164/100 133/163/98
f 138/168/107 108/134/108 107/133/102 134/164/100
f 123/153/109 124/154/110 136/166/105 135/165/104
f 124/154/110 125/155/111 137/167/106 136/166/105
f 125/155/111 126/156/112 138/168/107 137/167/106
f 126/156/112 101/127/113 108/134/108 138/168/107
f 139/169/114 140/170/115 128/158/116 127/157/117
f 140/170/115 141/171/118 129/159/119 128/158/116
f 141/171/118 142/172/120 130/160/121 129/159/119
f 142/172/120 110/136/122 102/128/123 130/160/121
f 143/173/124 144/174/125 140/170/115 139/169/114
f 144/174/125 145/175/126 141/171/118 140/170/115
f 145/175/126 146/176/127 142/172/120 141/171/118
f 146/176/127 109/135/128 110/136/122 142/172/120
f 119/149/129 120/150/130 144/174/125 143/173/124
f 120/150/130 121/151/131 145/175/126 144/174/125
f 121/151/131 122/152/132 146/176/127 145/175/126
f 122/152/132 98/124/133 109/135/128 146/176/127
f 147/177/134 148/179/135 120/150/130 119/149/129
f 148/179/135 149/181/136 121/151/131 120/150/130
f 149/181/136 150/183/137 122/152/132 121/151/131
f 150/183/137 112/139/138 98/124/133 122/152/132
f 115/145/97 116/146/96 148/180/135 147/178/134
f 116/146/96 117/147/99 149/182/136 148/180/135
f 117/147/99 118/148/101 150/184/137 149/182/136
f 118/148/101 97/123/103 112/140/138 150/184/137
f 114/143/139 154/191/140 130/160/121 102/128/123
f 154/191/140 153/189/141 129/159/119 130/160/121
f 153/189/141 152/187/142 128/158/116 129/159/119
f 152/187/142 151/185/143 127/157/117 128/158/116
f 101/127/113 126/156/112 154/192/140 114/144/139
f 126/156/112 125/155/111 153/190/141 154/192/140
f 125/155/111 124/154/110 152/188/142 153/190/141
f 124/154/110 123/153/109 151/186/143 152/188/142
f 103/129/144 159/197/145 155/193/146 96/122/147
f 159/197/145 131/161/94 115/145/97 155/193/146
f 104/130/148 160/198/149 159/197/145 103/129/144
f 160/198/149 135/165/104 131/161/94 159/197/145
f 100/126/150 157/195/151 160/198/149 104/130/148
f 157/195/151 123/153/109 135/165/104 160/198/149
f 106/132/152 161/199/153 158/196/154 99/125/155
f 161/199/153 139/169/114 127/157/117 158/196/154
f 105/131/156 162/200/157 161/199/153 106/132/152
f 162/200/157 143/173/124 139/169/114 161/199/153
f 95/121/158 156/194/159 162/200/157 105/131/156
f 156/194/159 119/149/129 143/173/124 162/200/157
f 156/194/159 95/121/158 111/138/160 163/201/161
f 163/201/161 147/177/134 119/149/129 156/194/159
f 96/122/147 155/193/146 163/202/161 111/137/160
f 155/193/146 115/145/97 147/178/134 163/202/161
f 151/185/143 164/203/162 158/196/154 127/157/117
f 164/203/162 113/142/163 99/125/155 158/196/154
f 123/153/109 157/195/151 164/204/162 151/186/143
f 157/195/151 100/126/150 113/141/163 164/204/162
f 113/141/163 100/126/150 165/205/164 166/206/165
f 99/125/155 113/142/163 166/207/165 167/208/166
f 96/122/147 111/137/160 169/210/167 168/209/168
f 111/138/160 95/121/158 170/212/169 169/211/167
f 106/132/152 99/125/155 167/208/166 171/213/170
f 105/131/156 106/132/152 171/213/170 172/214/171
f 95/121/158 105/131/156 172/214/171 170/212/169
f 100/126/150 104/130/148 173/215/172 165/205/164
f 104/130/148 103/129/144 174/216/173 173/215/172
f 103/129/144 96/122/147 168/209/168 174/216/173
f 166/206/165 165/205/164 173/215/172 175/217/174
f 167/208/166 166/207/165 175/218/174 171/213/170
f 175/217/174 173/215/172 174/216/173 176/219/175
f 171/213/170 175/218/174 176/220/175 172/214/171
f 176/219/175 174/216/173 168/209/168 169/210/167
f 169/211/167 170/212/169 172/214/171 176/220/175
f 114/143/139 102/128/123 177/221/176 178/223/177
f 101/127/113 114/144/139 178/224/177 179/226/178
f 98/124/133 112/139/138 181/229/179 180/227/180
f 112/140/138 97/123/103 182/232/181 181/230/179
f 102/128/123 110/136/122 183/233/182 177/221/176
f 110/136/122 109/135/128 184/235/183 183/233/182
f 109/135/128 98/124/133 180/227/180 184/235/183
f 108/134/108 101/127/113 179/226/178 185/237/184
f 107/133/102 108/134/108 185/237/184 186/238/185
f 97/123/103 107/133/102 186/238/185 182/232/181
f 178/225/177 177/222/176 183/234/182 187/239/186
f 179/226/178 178/225/177 187/239/186 185/237/184
f 187/239/186 183/234/182 184/236/183 188/240/186
f 185/237/184 187/239/186 188/240/186 186/238/185
f 188/240/186 184/236/183 180/228/180 181/231/179
f 186/238/185 188/240/186 181/231/179 182/232/181
